<svg xmlns="http://www.w3.org/2000/svg" version="1.1" xmlns:xlink="http://www.w3.org/1999/xlink" xmlns:svgjs="http://svgjs.dev/svgjs" width="1500" height="1087" viewBox="0 0 1500 1087"><g transform="matrix(1,0,0,1,-0.9090909090911055,0.4332560026482497)"><svg viewBox="0 0 396 287" data-background-color="#000000" preserveAspectRatio="xMidYMid meet" height="1087" width="1500" xmlns="http://www.w3.org/2000/svg" xmlns:xlink="http://www.w3.org/1999/xlink"><g id="tight-bounds" transform="matrix(1,0,0,1,0.24000000000003752,-0.1143923392456827)"><svg viewBox="0 0 395.5199999999999 287.2287846784913" height="287.2287846784913" width="395.5199999999999"><g><svg viewBox="0 0 395.5199999999999 287.2287846784913" height="287.2287846784913" width="395.5199999999999"><g transform="matrix(1,0,0,1,0,147.9023879102582)"><svg viewBox="0 0 395.5199999999999 139.3263967682331" height="139.3263967682331" width="395.5199999999999"><g id="textblocktransform"><svg viewBox="0 0 395.5199999999999 139.3263967682331" height="139.3263967682331" width="395.5199999999999" id="textblock"><g><svg viewBox="0 0 395.5199999999999 139.3263967682331" height="139.3263967682331" width="395.5199999999999"><g transform="matrix(1,0,0,1,0,0)"><svg width="395.5199999999999" viewBox="7.20613 -20.3094 132.82402000000002 46.788721997420225" height="139.3263967682331" data-palette-color="url(#4ae9e870-f8fa-4f44-8e23-27008b3db1ca)"></svg></g></svg></g></svg></g></svg></g><g transform="matrix(1,0,0,1,157.3423549831508,0)"><svg viewBox="0 0 80.83529003369831 139.3263967682331" height="139.3263967682331" width="80.83529003369831"><g><svg xmlns="http://www.w3.org/2000/svg" xmlns:xlink="http://www.w3.org/1999/xlink" version="1.1" x="0" y="0" viewBox="21.679106830508623 1 56.85827385947761 98" enable-background="new 0 0 100 100" xml:space="preserve" height="139.3263967682331" width="80.83529003369831" class="icon-icon-0" data-fill-palette-color="accent" id="icon-0"></svg></g></svg></g><g></g></svg></g><defs></defs><mask id="a6044c91-30c8-4c0d-bde3-7a192af9f7ec"><g id="SvgjsG2457"><svg viewBox="0 0 395.5199999999999 287.2287846784913" height="287.2287846784913" width="395.5199999999999"><g><svg viewBox="0 0 395.5199999999999 287.2287846784913" height="287.2287846784913" width="395.5199999999999"><g transform="matrix(1,0,0,1,0,147.9023879102582)"><svg viewBox="0 0 395.5199999999999 139.3263967682331" height="139.3263967682331" width="395.5199999999999"><g id="SvgjsG2456"><svg viewBox="0 0 395.5199999999999 139.3263967682331" height="139.3263967682331" width="395.5199999999999" id="SvgjsSvg2455"><g><svg viewBox="0 0 395.5199999999999 139.3263967682331" height="139.3263967682331" width="395.5199999999999"><g transform="matrix(1,0,0,1,0,0)"><svg width="395.5199999999999" viewBox="7.20613 -20.3094 132.82402000000002 46.788721997420225" height="139.3263967682331" data-palette-color="url(#4ae9e870-f8fa-4f44-8e23-27008b3db1ca)"><path d="M7.206-20.309l4.521 1.459 4.359 20.058 15.359-13.695 4.473 1.444-18.971 16.617-3.814 11.819-4.102-1.324 3.845-11.914zM24.697 21.095l19.312-31.337 3.592 0.592 8.187 35.868-4.539-0.748-2.353-10.502-14.1-2.323-5.56 9.198zM36.189 9.479l12.304 2.027-3.499-16.529zM74.948 26.479v0c-2.4 0.005-4.574-0.477-6.523-1.446-1.955-0.976-3.645-2.276-5.068-3.899-1.43-1.63-2.531-3.475-3.302-5.533-0.771-2.065-1.159-4.184-1.164-6.357v0c-0.005-2.267 0.397-4.434 1.206-6.503 0.816-2.062 1.948-3.901 3.398-5.517 1.45-1.623 3.15-2.907 5.102-3.851 1.945-0.951 4.07-1.429 6.377-1.434v0c2.393-0.005 4.568 0.487 6.523 1.476 1.955 0.989 3.638 2.312 5.049 3.969 1.41 1.664 2.501 3.518 3.272 5.563 0.771 2.045 1.159 4.138 1.163 6.278v0c0.005 2.273-0.39 4.441-1.186 6.502-0.796 2.062-1.918 3.904-3.368 5.528-1.45 1.616-3.15 2.89-5.102 3.821-1.951 0.931-4.077 1.399-6.377 1.403zM74.99 22.589v0c1.82-0.004 3.449-0.391 4.887-1.16 1.438-0.77 2.659-1.796 3.664-3.078 1.004-1.275 1.768-2.714 2.29-4.315 0.523-1.601 0.783-3.218 0.78-4.852v0c-0.004-1.727-0.284-3.396-0.841-5.008-0.563-1.612-1.367-3.04-2.409-4.285-1.043-1.244-2.278-2.235-3.706-2.972-1.422-0.73-2.996-1.094-4.723-1.09v0c-1.82 0.004-3.449 0.391-4.887 1.161-1.438 0.77-2.659 1.796-3.663 3.078-1.004 1.282-1.778 2.714-2.321 4.295-0.537 1.588-0.803 3.212-0.8 4.871v0c0.004 1.727 0.284 3.396 0.841 5.009 0.563 1.619 1.36 3.05 2.389 4.294 1.023 1.244 2.255 2.232 3.696 2.963 1.442 0.73 3.042 1.093 4.803 1.089zM86.458 26.215l-9.564-11.11 4.22-0.009 9.564 11.11zM102.553 24.789l-4.281 0.504-3.978-33.827 4.281-0.504zM136.21 16.689l-26.282-20.284 6.374 25.3-4.18 1.053-8.321-33.028 3.53-0.89 26.695 20.737-6.494-25.775 4.189-1.055 8.309 32.979z" opacity="1" transform="matrix(1,0,0,1,0,0)" fill="white" class="wordmark-text-0" id="SvgjsPath2454"></path></svg></g></svg></g></svg></g></svg></g><g transform="matrix(1,0,0,1,157.3423549831508,0)"><svg viewBox="0 0 80.83529003369831 139.3263967682331" height="139.3263967682331" width="80.83529003369831"><g><svg xmlns="http://www.w3.org/2000/svg" xmlns:xlink="http://www.w3.org/1999/xlink" version="1.1" x="0" y="0" viewBox="21.679106830508623 1 56.85827385947761 98" enable-background="new 0 0 100 100" xml:space="preserve" height="139.3263967682331" width="80.83529003369831" class="icon-icon-0" data-fill-palette-color="accent" id="SvgjsSvg2453"><g fill="black"><path fill-rule="evenodd" clip-rule="evenodd" d="M30.545 28.822c-1.165 7.217 0.33 14.85 6.5 19.041C30.758 19.81 45.756 8.664 59.646 1c-16.18 23.046 16.896 23.644 18.777 50.13C80.028 73.71 64.507 91.317 46.639 99c0.206-22.825-22.55-25.933-24.838-44.603C20.905 47.094 25.062 33.766 30.545 28.822z" fill="black"></path></g></svg></g></svg></g><g></g></svg></g><defs><mask></mask></defs></svg><rect width="395.5199999999999" height="287.2287846784913" fill="black" stroke="none" visibility="hidden"></rect></g></mask><linearGradient x1="0" x2="1" y1="0.578" y2="0.595" id="4ae9e870-f8fa-4f44-8e23-27008b3db1ca"><stop stop-color="#6ee2f5" offset="0"></stop><stop stop-color="#6454f0" offset="1"></stop></linearGradient><rect width="395.5199999999999" height="287.2287846784913" fill="url(#4ae9e870-f8fa-4f44-8e23-27008b3db1ca)" mask="url(#a6044c91-30c8-4c0d-bde3-7a192af9f7ec)" data-fill-palette-color="primary"></rect><mask id="35139158-e8a4-4fd3-a280-3359564d875b"><g id="SvgjsG2476"><svg viewBox="0 0 395.5199999999999 287.2287846784913" height="287.2287846784913" width="395.5199999999999"><g><svg viewBox="0 0 395.5199999999999 287.2287846784913" height="287.2287846784913" width="395.5199999999999"><g transform="matrix(1,0,0,1,0,147.9023879102582)"><svg viewBox="0 0 395.5199999999999 139.3263967682331" height="139.3263967682331" width="395.5199999999999"><g id="SvgjsG2475"><svg viewBox="0 0 395.5199999999999 139.3263967682331" height="139.3263967682331" width="395.5199999999999" id="SvgjsSvg2474"><g><svg viewBox="0 0 395.5199999999999 139.3263967682331" height="139.3263967682331" width="395.5199999999999"><g transform="matrix(1,0,0,1,0,0)"><svg width="395.5199999999999" viewBox="7.20613 -20.3094 132.82402000000002 46.788721997420225" height="139.3263967682331" data-palette-color="url(#4ae9e870-f8fa-4f44-8e23-27008b3db1ca)"></svg></g></svg></g></svg></g></svg></g><g transform="matrix(1,0,0,1,157.3423549831508,0)"><svg viewBox="0 0 80.83529003369831 139.3263967682331" height="139.3263967682331" width="80.83529003369831"><g><svg xmlns="http://www.w3.org/2000/svg" xmlns:xlink="http://www.w3.org/1999/xlink" version="1.1" x="0" y="0" viewBox="21.679106830508623 1 56.85827385947761 98" enable-background="new 0 0 100 100" xml:space="preserve" height="139.3263967682331" width="80.83529003369831" class="icon-icon-0" data-fill-palette-color="accent" id="SvgjsSvg2473"><g fill="white"><path fill-rule="evenodd" clip-rule="evenodd" d="M30.545 28.822c-1.165 7.217 0.33 14.85 6.5 19.041C30.758 19.81 45.756 8.664 59.646 1c-16.18 23.046 16.896 23.644 18.777 50.13C80.028 73.71 64.507 91.317 46.639 99c0.206-22.825-22.55-25.933-24.838-44.603C20.905 47.094 25.062 33.766 30.545 28.822z" fill="white"></path></g></svg></g></svg></g><g></g></svg></g><defs><mask></mask></defs></svg><rect width="395.5199999999999" height="287.2287846784913" fill="black" stroke="none" visibility="hidden"></rect></g></mask></svg><rect width="395.5199999999999" height="287.2287846784913" fill="black" stroke="none" visibility="hidden"></rect></g></mask><linearGradient x1="0" x2="1" y1="0.578" y2="0.595" id="bf5c64d7-149c-4e16-b5bd-af68767c764d"><stop stop-color="#6ee2f5" offset="0"></stop><stop stop-color="#6454f0" offset="1"></stop></linearGradient><rect width="395.5199999999999" height="287.2287846784913" fill="url(#bf5c64d7-149c-4e16-b5bd-af68767c764d)" mask="url(#35139158-e8a4-4fd3-a280-3359564d875b)" data-fill-palette-color="accent"></rect></svg><rect width="395.5199999999999" height="287.2287846784913" fill="none" stroke="none" visibility="hidden"></rect></g></svg></g></svg> 